<svg xmlns="http://www.w3.org/2000/svg" xmlns:xlink="http://www.w3.org/1999/xlink" preserveAspectRatio="xMidYMid" width="100" height="67" viewBox="0 0 100 67">
  <defs>
    <style>
      .cls-1 {
        fill: #fff;
      }

      .cls-1, .cls-2, .cls-3 {
        fill-rule: evenodd;
      }

      .cls-2 {
        fill: #030303;
      }

      .cls-3 {
        fill: #f00101;
      }
    </style>
  </defs>
  <g>
    <path d="M0.621,17.685 L99.172,17.685 L99.172,60.756 L0.621,60.756 L0.621,17.685 Z" class="cls-1"/>
    <path d="M78.530,55.807 C78.142,55.517 77.438,51.615 77.140,48.101 C77.006,46.522 76.926,46.272 76.400,45.777 C75.548,44.977 75.697,43.931 76.663,43.931 C77.035,43.931 77.222,43.390 77.356,41.920 C77.595,39.296 78.485,35.828 79.377,34.046 C80.398,32.007 83.021,29.764 84.385,29.764 C84.832,29.764 86.033,30.157 87.506,30.785 C87.734,30.882 88.182,31.068 88.501,31.197 C88.904,31.360 89.234,31.768 89.575,32.525 C90.476,34.522 90.447,37.007 89.494,39.561 C88.651,41.820 84.262,45.873 82.039,46.447 L80.985,46.718 L80.991,48.711 C80.999,51.182 81.292,53.533 81.739,54.711 C81.926,55.204 82.012,55.676 81.929,55.760 C81.761,55.929 78.749,55.970 78.530,55.807 L78.530,55.807 ZM83.142,41.628 C83.999,40.809 84.925,39.686 85.234,39.091 C85.878,37.852 86.200,35.948 86.025,34.421 C85.831,32.735 85.654,32.639 84.715,33.712 C83.278,35.355 82.528,37.129 81.715,40.806 C81.525,41.665 81.324,42.532 81.267,42.733 C81.076,43.412 81.599,43.103 83.142,41.628 L83.142,41.628 ZM57.014,44.638 C56.881,42.515 56.726,40.704 56.670,40.613 C56.615,40.522 55.847,40.382 54.965,40.301 C53.150,40.136 52.831,39.960 52.831,39.125 C52.831,38.191 53.496,37.861 55.052,38.021 L56.351,38.155 L56.341,37.345 C56.336,36.899 56.243,35.832 56.135,34.972 C55.338,28.678 55.190,24.212 55.729,22.785 C55.895,22.346 56.060,22.263 56.766,22.263 C57.579,22.263 59.486,23.057 59.765,23.512 C59.868,23.679 60.042,29.909 60.105,35.701 C60.109,36.045 60.047,36.631 59.967,37.004 C59.839,37.605 59.873,37.681 60.275,37.681 C60.647,37.681 60.716,37.579 60.661,37.108 C60.604,36.620 60.677,36.525 61.151,36.470 C61.597,36.418 61.986,36.675 63.110,37.762 C63.881,38.509 64.444,39.188 64.361,39.272 C64.046,39.589 62.629,39.966 61.733,39.972 C59.751,39.985 59.874,39.690 59.991,44.136 C60.108,48.571 60.228,48.267 58.305,48.417 L57.257,48.499 L57.014,44.638 ZM26.551,47.317 C26.416,46.773 26.080,45.811 25.804,45.181 C25.265,43.950 24.570,41.625 23.842,38.618 C23.592,37.587 23.314,36.606 23.224,36.439 C22.991,36.007 22.853,37.373 22.729,41.327 C22.671,43.160 22.500,45.082 22.349,45.598 L22.075,46.535 L20.030,46.726 L17.985,46.916 L17.527,46.337 C17.275,46.019 16.484,44.783 15.770,43.592 C15.056,42.400 14.446,41.451 14.414,41.482 C14.383,41.514 14.478,42.421 14.625,43.498 C14.772,44.575 14.850,45.618 14.799,45.816 C14.657,46.360 12.705,47.132 11.554,47.100 C10.597,47.072 10.394,46.673 10.090,44.225 C9.570,40.050 9.524,39.082 9.672,35.491 L9.820,31.921 L10.731,31.675 C12.197,31.280 13.829,31.357 14.277,31.840 C14.485,32.066 15.486,33.871 16.501,35.851 L18.345,39.451 L18.606,37.472 C18.991,34.555 20.138,30.650 21.126,28.892 L21.514,28.201 L23.342,28.246 C24.846,28.283 25.242,28.363 25.577,28.701 C26.097,29.223 27.077,32.961 28.520,39.914 C28.692,40.742 28.969,41.809 29.136,42.285 C29.303,42.760 29.439,43.323 29.439,43.534 C29.439,43.745 29.672,44.636 29.957,45.514 C30.480,47.127 30.587,47.655 30.338,47.405 C30.263,47.330 30.077,47.373 29.923,47.500 C29.703,47.685 27.524,48.265 26.928,48.299 C26.856,48.303 26.686,47.861 26.551,47.317 L26.551,47.317 ZM34.964,47.869 C33.981,47.637 33.554,47.409 32.160,46.375 C30.568,45.194 30.300,44.463 30.269,41.223 C30.238,37.907 30.385,36.464 30.931,34.715 C31.440,33.086 32.662,31.564 34.431,30.357 C35.498,29.629 35.594,29.604 36.684,29.763 C38.630,30.047 39.593,30.436 39.920,31.070 C40.565,32.317 40.788,39.437 40.212,40.375 C40.007,40.709 36.595,40.722 35.452,40.392 C35.073,40.283 34.682,40.243 34.585,40.303 C34.487,40.364 34.409,41.088 34.412,41.912 C34.417,43.686 34.856,44.823 35.864,45.676 C36.476,46.195 36.656,46.243 37.498,46.117 C38.018,46.039 38.683,45.833 38.976,45.659 C39.695,45.233 41.606,45.611 42.256,46.308 L42.708,46.791 L41.611,47.210 C39.599,47.980 36.659,48.271 34.964,47.869 L34.964,47.869 ZM36.310,37.316 C36.409,36.110 36.254,33.930 36.070,33.930 C35.871,33.930 35.057,35.899 34.821,36.953 C34.673,37.616 34.706,37.730 35.099,37.889 C36.002,38.256 36.242,38.143 36.310,37.316 ZM48.174,47.539 C45.107,47.146 44.004,46.568 42.739,44.688 C41.790,43.277 41.752,43.162 41.632,41.339 C41.547,40.038 41.591,39.225 41.773,38.722 C41.919,38.321 42.185,37.315 42.365,36.486 C43.003,33.537 43.692,32.263 45.904,29.946 C46.916,28.886 47.174,28.722 47.830,28.726 C48.247,28.729 48.993,28.916 49.490,29.143 C49.986,29.370 50.504,29.555 50.642,29.555 C50.778,29.555 51.106,29.758 51.371,30.006 C51.836,30.442 51.847,30.527 51.706,32.762 C51.626,34.030 51.476,35.171 51.373,35.296 C51.269,35.422 51.159,36.750 51.128,38.247 L51.072,40.971 L49.905,41.299 C48.875,41.589 48.561,41.593 47.218,41.336 C45.534,41.013 45.388,41.078 45.382,42.146 C45.378,42.978 46.117,44.451 46.968,45.308 C47.563,45.906 47.816,46.015 48.622,46.015 C49.948,46.015 51.159,45.608 51.530,45.038 C51.914,44.449 52.317,44.432 53.194,44.971 C54.237,45.611 54.119,46.271 52.864,46.814 C51.104,47.576 49.905,47.761 48.174,47.539 L48.174,47.539 ZM47.732,38.670 C47.801,38.413 47.855,37.170 47.852,35.910 C47.847,33.714 47.833,33.643 47.523,34.218 C47.125,34.958 46.000,38.195 46.000,38.601 C46.000,38.948 46.310,39.100 47.062,39.123 C47.460,39.135 47.641,39.013 47.732,38.670 L47.732,38.670 ZM67.189,47.168 C66.113,46.409 65.232,43.237 64.845,38.722 C64.656,36.524 64.693,35.378 64.965,34.935 C65.160,34.617 66.270,34.761 67.265,35.233 C69.104,36.104 69.048,35.963 69.227,40.238 C69.409,44.570 69.520,45.451 69.867,45.334 C70.326,45.181 72.011,42.451 72.266,41.449 C72.406,40.899 72.505,39.569 72.488,38.493 C72.470,37.416 72.455,36.322 72.455,36.062 C72.454,35.463 72.852,34.972 73.336,34.972 C73.857,34.972 76.312,36.139 76.648,36.547 C76.874,36.821 76.880,37.236 76.680,38.829 C76.419,40.909 76.145,41.748 75.551,42.293 C75.346,42.481 74.964,43.044 74.701,43.543 C74.438,44.043 74.099,44.452 73.947,44.452 C73.795,44.452 73.632,44.593 73.586,44.765 C73.510,45.042 73.525,45.042 73.721,44.765 C73.841,44.593 73.940,44.546 73.940,44.660 C73.940,45.119 71.916,47.074 71.238,47.270 C70.147,47.585 67.693,47.523 67.189,47.168 L67.189,47.168 Z" class="cls-2"/>
    <path d="M4.087,66.558 C2.752,66.042 1.205,64.568 0.510,63.151 L-0.000,62.110 L-0.000,33.500 L-0.000,4.890 L0.510,3.849 C1.226,2.389 2.750,0.957 4.146,0.432 L5.295,0.000 L50.000,0.000 L94.705,0.000 L95.891,0.446 C97.317,0.982 98.887,2.467 99.547,3.905 L100.000,4.890 L100.000,33.500 L100.000,62.110 L99.547,63.095 C98.886,64.533 97.316,66.018 95.891,66.554 L94.705,67.000 L49.940,66.989 C5.532,66.978 5.167,66.975 4.087,66.558 ZM98.861,37.974 L98.861,17.894 L50.000,17.894 L1.139,17.894 L1.139,37.974 L1.139,58.053 L50.000,58.053 L98.861,58.053 L98.861,37.974 Z" class="cls-3"/>
  </g>
</svg>
